<svg version="1.1" xmlns="http://www.w3.org/2000/svg" xmlns:xlink="http://www.w3.org/1999/xlink" width="15.56676" height="14.99125" viewBox="0,0,15.56676,14.99125"><g transform="translate(-232.21662,-172.50437)"><g data-paper-data="{&quot;isPaintingLayer&quot;:true}" fill="none" fill-rule="nonzero" stroke="#000000" stroke-width="1" stroke-linecap="butt" stroke-linejoin="miter" stroke-miterlimit="10" stroke-dasharray="" stroke-dashoffset="0" style="mix-blend-mode: normal"><g><path d="M232.71662,186.44328c0,-2.03648 0,-9.0589 0,-10.06991c0,-0.23797 0.47601,-0.42866 0.97044,-0.42866c1.24529,0 6.71147,0 9.08769,0c0.68207,0 1.10956,0.17654 1.10956,0.39984c0,0.99854 0,8.26252 0,10.18521c0,0.29641 -0.44873,0.46587 -0.92121,0.46587c-1.305,0 -7.47642,0 -9.55856,0c-0.43196,0 -0.68792,-0.20267 -0.68792,-0.55235z"/><path d="M236.11569,175.98712c0,-1.24037 0,-2.22183 0,-2.55408c0,-0.23797 0.47601,-0.42866 0.97044,-0.42866c1.24529,0 6.71147,0 9.08769,0c0.68207,0 1.10956,0.17654 1.10956,0.39984c0,0.99854 0,8.26252 0,10.18521c0,0.2964 -0.44873,0.46587 -0.92121,0.46587c-0.43479,0 -1.40979,0 -2.59377,0"/></g></g></g></svg>