<svg version="1.1" xmlns="http://www.w3.org/2000/svg" xmlns:xlink="http://www.w3.org/1999/xlink" width="14.36274" height="22.01871" viewBox="0,0,14.36274,22.01871"><g transform="translate(-231.7211,-167.50675)"><g data-paper-data="{&quot;isPaintingLayer&quot;:true}" fill="none" fill-rule="nonzero" stroke="#000000" stroke-width="1" stroke-linejoin="miter" stroke-miterlimit="10" stroke-dasharray="" stroke-dashoffset="0" style="mix-blend-mode: normal"><path d="M234.41616,188.12323c0,-3.32645 0,-14.79709 0,-16.4485c0,-0.38871 0.47601,-0.70019 0.97044,-0.70019c1.24529,0 6.71147,0 9.08769,0c0.68207,0 1.10956,0.28837 1.10956,0.65311c0,1.63105 0,13.49626 0,16.63684c0,0.48416 -0.44873,0.76097 -0.92121,0.76097c-1.305,0 -7.47642,0 -9.55856,0c-0.43196,0 -0.68792,-0.33105 -0.68792,-0.90223z" stroke-linecap="butt"/><path d="M232.22111,177.77265c0,-3.99185 0,-8.11697 0,-9.05745c0,-0.38871 0.47601,-0.70019 0.97044,-0.70019c1.07211,0 5.27273,0 7.93668,0" stroke-linecap="butt"/><path d="M232.22638,179.55202l0.01824,-5.8634" stroke-linecap="round"/><path d="M242.74449,168.00675l-2.58558,0.02406" stroke-linecap="round"/></g></g></svg>